PathFileType	4	(X/Y/Z)	Kaydara																																																																																																																									
DataRate	CameraRate	NumFrames	NumMarkers	Units	OrigDataRate	OrigDataStartFrame	OrigNumFrames																																																																																																																					
30	30	6	41	mm	30	146	232																																																																																																																					
Frame#	Time	EMLA_LFHD			EMLA_RFHD			EMLA_LBHD			EMLA_RBHD			EMLA_LFTShould			EMLA_RFTShould			EMLA_LRRShould			EMLA_RRRShould			EMLA_T10			EMLA_STRN			EMLA_TRUN			EMLA_LSHO			EMLA_LUPA			EMLA_LELB			EMLA_LFRM			EMLA_LWRA			EMLA_LWRB			EMLA_LFIN			EMLA_RSHO			EMLA_RUPA			EMLA_RELB			EMLA_RFRM			EMLA_RWRA			EMLA_RWRB			EMLA_RFIN			EMLA_LFWT			EMLA_RFWT			EMLA_LBWT			EMLA_RBWT			EMLA_LTHI			EMLA_LKNE			EMLA_LSHN			EMLA_LANK			EMLA_LHEE			EMLA_LTOE			EMLA_RTHI			EMLA_RKNE			EMLA_RSHN			EMLA_RANK			EMLA_RHEE			EMLA_RTOE		
		X1	Y1	Z1	X2	Y2	Z2	X3	Y3	Z3	X4	Y4	Z4	X5	Y5	Z5	X6	Y6	Z6	X7	Y7	Z7	X8	Y8	Z8	X9	Y9	Z9	X10	Y10	Z10	X11	Y11	Z11	X12	Y12	Z12	X13	Y13	Z13	X14	Y14	Z14	X15	Y15	Z15	X16	Y16	Z16	X17	Y17	Z17	X18	Y18	Z18	X19	Y19	Z19	X20	Y20	Z20	X21	Y21	Z21	X22	Y22	Z22	X23	Y23	Z23	X24	Y24	Z24	X25	Y25	Z25	X26	Y26	Z26	X27	Y27	Z27	X28	Y28	Z28	X29	Y29	Z29	X30	Y30	Z30	X31	Y31	Z31	X32	Y32	Z32	X33	Y33	Z33	X34	Y34	Z34	X35	Y35	Z35	X36	Y36	Z36	X37	Y37	Z37	X38	Y38	Z38	X39	Y39	Z39	X40	Y40	Z40	X41	Y41	Z41
																																																																																																																												
146	4.843	294.72504	1628.12439	-1802.1019	125.11352	1625.41443	-1805.16296	311.01862	1622.08725	-1953.64532	116.64048	1621.40945	-1957.20291	290.64837	1399.18533	-1860.50446	141.7198	1393.47214	-1865.59631	295.28625	1453.23196	-2008.07358	137.3443	1447.88223	-2016.04874	230.75552	1281.38168	-2066.82343	214.2518	1327.94708	-1829.02267	208.65911	1223.73039	-1815.87784	419.01539	1422.43179	-1903.61374	481.91341	1241.30745	-1917.901	504.02996	1096.98029	-1922.13928	494.52065	958.74977	-1912.11792	388.8364	824.03397	-1841.94656	455.2771	801.29646	-1891.72882	436.5955	768.06847	-1832.37305	24.4435	1428.33908	-1934.93515	-40.88175	1239.13239	-1951.27228	-64.66771	1097.37709	-1983.04626	-70.0555	997.61391	-1995.88959	-16.68037	828.46954	-1898.35114	-58.99088	820.06012	-1974.99023	-75.59538	782.30988	-1918.5936	312.59943	976.0363	-1856.12167	79.27192	977.2319	-1878.39813	298.14264	1013.56621	-2056.09146	121.15753	1013.59024	-2058.70117	337.45144	725.81009	-2062.26181	337.06848	519.93584	-2034.15924	301.25071	336.13636	-2049.03488	293.93639	176.36806	-2155.82153	227.46044	112.43426	-2230.76279	249.22283	73.75024	-2035.29205	64.97338	694.72443	-2031.62369	18.86733	509.6035	-1934.40155	64.95958	296.36929	-2006.40717	41.19006	185.21791	-2150.68222	105.93902	154.35323	-2213.52707	45.10925	74.78196	-2044.34753
147	4.877	297.57946	1632.62405	-1785.17044	128.03679	1629.04724	-1785.75226	311.68798	1628.46222	-1936.99219	117.17671	1626.82602	-1937.79861	291.73016	1405.21347	-1843.91495	143.11835	1399.49905	-1850.01129	297.82822	1459.54285	-1991.3298	140.08494	1454.70779	-2000.20844	233.358	1288.37677	-2052.2403	215.00366	1333.64426	-1813.85925	209.39377	1228.95599	-1801.34354	420.36221	1429.11682	-1886.21674	483.90232	1248.37601	-1895.62592	505.52696	1103.17726	-1895.81787	492.79175	965.03983	-1882.47253	381.04977	835.24857	-1812.32239	448.52863	809.03542	-1858.60153	426.80016	778.50723	-1798.82568	27.04644	1434.94766	-1919.68765	-41.58687	1248.03482	-1944.19693	-67.03885	1108.2663	-1981.29028	-73.92474	1009.17458	-1998.04993	-23.4269	835.80101	-1906.73218	-67.11197	835.87822	-1987.18948	-82.85522	791.22711	-1928.74832	316.70315	981.43661	-1845.55313	82.87209	983.94081	-1865.14603	297.17894	1019.14566	-2046.4534	120.10929	1018.5215	-2045.60486	337.93076	731.94153	-2054.05289	339.6323	525.9399	-2027.01035	304.28793	342.09068	-2042.9248	296.91391	183.56541	-2151.72729	230.49919	122.46787	-2227.09122	251.36578	74.18733	-2034.60159	61.48436	698.99704	-2007.509	21.18771	517.89536	-1900.28	68.31968	306.4694	-1976.25397	46.54099	200.01606	-2124.31747	112.55324	169.78291	-2185.73547	43.3247	86.3732	-2022.70401
148	4.91	299.29386	1638.08044	-1766.64978	130.02828	1633.37097	-1765.15152	311.70959	1635.7103	-1918.88031	117.10655	1632.73102	-1917.15622	292.59716	1411.57928	-1826.73004	143.93903	1406.16547	-1832.73529	299.05081	1466.67328	-1973.7085	141.5925	1462.17834	-1982.58743	234.40983	1296.2796	-2036.61377	215.70538	1339.66827	-1797.41013	210.30172	1234.73129	-1786.62735	420.99251	1436.21643	-1868.44528	484.56886	1255.6488	-1873.47458	505.82806	1110.23178	-1869.94202	489.37325	971.95045	-1852.14188	372.02824	847.78503	-1780.00412	440.24513	817.99942	-1824.31763	416.33095	790.30235	-1764.04282	28.28404	1442.76688	-1902.89032	-42.81124	1258.00369	-1935.50079	-69.7661	1120.70694	-1978.7291	-77.72283	1022.3333	-1999.54376	-30.18166	844.42604	-1915.61203	-72.34157	845.86227	-1995.19455	-90.02697	801.89766	-1940.28458	319.76864	987.82814	-1834.56894	85.56096	991.65382	-1849.28146	295.26423	1025.65208	-2035.60379	118.25958	1024.79416	-2030.90317	336.30821	739.17915	-2044.59732	341.72234	533.18108	-2018.69812	307.95887	349.37878	-2036.65466	299.97141	191.97687	-2146.68182	233.58067	133.19929	-2221.89987	251.97264	74.03773	-2031.95786	62.16682	704.92989	-1983.9064	24.39784	527.24098	-1870.07782	72.18446	314.11713	-1940.92728	52.16954	204.79769	-2087.29538	119.03606	173.01832	-2146.28693	42.92723	93.31725	-1983.05756
149	4.943	302.38855	1643.89771	-1748.61557	131.15076	1637.52548	-1743.39279	311.3154	1642.42874	-1898.99353	116.66434	1638.46268	-1895.38498	292.74712	1417.55386	-1808.40851	144.40761	1412.28912	-1813.72925	299.21801	1473.69736	-1954.85138	142.08442	1469.58466	-1963.06793	234.10236	1304.28146	-2019.41956	215.96117	1345.22507	-1779.51904	211.14244	1240.14862	-1770.64133	421.07498	1443.19489	-1850.18005	483.75862	1262.77168	-1851.64536	504.56875	1117.24403	-1844.3161	484.44923	979.07967	-1821.66077	362.53632	860.7608	-1747.202	430.73414	827.68661	-1789.16122	405.15377	802.87041	-1727.96417	29.00768	1450.22659	-1883.51288	-43.78993	1268.47237	-1924.0712	-72.11357	1133.77037	-1974.21738	-81.00093	1036.32599	-1999.45389	-37.25848	854.05327	-1922.56271	-76.43055	854.24393	-2001.02829	-96.5326	813.26668	-1951.45355	321.48445	994.08073	-1822.02072	86.88243	999.04449	-1833.04825	293.22001	1032.77382	-2022.71637	116.4948	1031.4843	-2015.65277	334.03709	746.84013	-2033.91495	343.58433	540.86319	-2010.30136	311.52281	356.68427	-2029.50836	303.48536	200.53879	-2140.90454	237.27949	143.83334	-2215.89569	253.48959	73.82552	-2030.60165	63.8315	711.93024	-1961.01654	28.86525	535.8765	-1842.72842	76.7607	317.93217	-1899.90082	56.31048	199.3926	-2039.13681	123.32873	165.74749	-2096.19568	48.11778	91.39312	-1927.80975
150	4.977	302.02486	1647.11945	-1726.45111	131.17033	1640.17487	-1720.77911	310.61804	1647.30209	-1877.10556	115.97239	1642.59598	-1872.7359	292.40862	1422.35519	-1788.85162	144.29819	1417.03598	-1793.49335	298.54021	1479.18045	-1934.65836	141.7391	1475.77515	-1942.03491	233.10194	1310.92468	-2000.86823	215.69523	1349.35486	-1760.31616	211.02558	1244.2762	-1752.51465	420.56492	1448.86612	-1830.91766	482.11147	1268.60352	-1829.85886	502.10697	1123.13911	-1818.74115	478.46149	985.49683	-1791.72592	352.50397	873.28835	-1713.46268	420.04456	836.87904	-1753.6734	393.51265	815.06454	-1691.67374	28.96182	1456.41602	-1862.59003	-45.01677	1277.33215	-1910.39276	-74.00679	1145.91125	-1967.07947	-83.64719	1049.49478	-1996.55548	-42.83926	862.36946	-1928.64304	-81.0615	865.12611	-2006.66489	-102.64469	824.23302	-1960.83832	321.82987	999.0683	-1807.93594	87.12512	1004.53903	-1817.0726	291.48481	1038.7307	-2008.51898	114.98696	1036.55937	-2000.07217	332.71915	753.26752	-2022.16064	344.89395	547.122	-2001.02951	314.25741	362.93575	-2021.88507	307.33793	207.87781	-2133.86993	241.28862	152.84782	-2209.69223	254.44225	73.73089	-2028.82019	65.24659	717.26753	-1939.95697	34.87601	542.76115	-1816.34293	82.7177	319.33382	-1854.44351	58.78749	186.62111	-1980.77164	124.49558	150.23176	-2036.45569	57.28187	87.07791	-1858.82309
151	5.01	300.79992	1647.45804	-1702.80014	130.063	1639.73541	-1697.46063	309.70596	1648.95676	-1853.41461	115.02459	1643.49167	-1849.32861	290.95724	1424.06525	-1768.14484	143.48455	1418.73413	-1772.0755	297.41007	1481.72012	-1913.01117	141.0317	1478.94928	-1919.74686	231.60639	1314.70963	-1981.07941	214.5892	1350.70282	-1739.99512	209.87209	1245.38696	-1733.38409	419.39125	1451.51031	-1810.17059	480.15503	1271.45264	-1807.65625	499.12296	1126.08887	-1793.35098	471.80958	989.39636	-1762.16888	342.15645	883.97629	-1678.6409	408.21709	843.97652	-1717.74979	381.40301	825.31815	-1655.09537	28.33614	1459.43573	-1840.42862	-46.11414	1283.00385	-1893.9595	-75.04155	1153.93288	-1955.88058	-85.72357	1059.72946	-1990.5397	-48.94105	868.42819	-1932.19513	-86.1952	876.29646	-2010.37582	-108.34658	832.98935	-1967.21603	321.64795	1001.16127	-1792.49023	86.89442	1006.84586	-1800.82977	289.96119	1041.77124	-1992.6474	113.77268	1038.6763	-1983.62732	332.03156	757.3616	-2009.54468	346.05873	551.08269	-1991.87653	316.63218	367.18666	-2014.89777	309.88102	213.05584	-2128.51974	243.89263	159.73966	-2204.39301	254.86198	73.41137	-2027.4736	64.37338	719.09592	-1920.4834	40.20506	546.28338	-1790.38025	88.72021	319.49305	-1805.51254	61.81464	172.2576	-1913.01758	125.58068	129.15082	-1965.98831	67.19525	87.94359	-1779.82193
